<svg xmlns="http://www.w3.org/2000/svg" width="1200" height="900" viewBox="0 0 1200 900" role="img" aria-labelledby="t d"><title id="t">Raspberry Pi Pico blink LED project illustration</title><desc id="d">An original stylized illustration of a Pico, breadboard, resistor, and glowing LED.</desc><rect width="1200" height="900" rx="48" fill="#eff6ff"/><circle cx="950" cy="160" r="210" fill="#ffedd5"/><rect x="150" y="170" width="900" height="560" rx="38" fill="#fff" stroke="#bfdbfe" stroke-width="8"/><g fill="#cbd5e1"><circle cx="225" cy="245" r="8"/><circle cx="275" cy="245" r="8"/><circle cx="925" cy="245" r="8"/><circle cx="975" cy="245" r="8"/></g><rect x="340" y="255" width="230" height="390" rx="24" fill="#2563eb"/><rect x="405" y="290" width="100" height="80" rx="10" fill="#0f172a"/><g fill="#fbbf24"><circle cx="365" cy="300" r="7"/><circle cx="365" cy="340" r="7"/><circle cx="365" cy="380" r="7"/><circle cx="545" cy="300" r="7"/><circle cx="545" cy="340" r="7"/><circle cx="545" cy="380" r="7"/></g><text x="455" y="470" text-anchor="middle" font-family="Arial" font-size="30" font-weight="700" fill="white">PICO</text><path d="M365 380H660" stroke="#ea580c" stroke-width="12" fill="none"/><rect x="660" y="362" width="150" height="36" rx="18" fill="#e2e8f0" stroke="#475569" stroke-width="4"/><path d="M680 362v36m25-36v36m70-36v36" stroke="#92400e" stroke-width="10"/><path d="M810 380h70v-55" stroke="#ea580c" stroke-width="12" fill="none"/><path d="M840 325h80" stroke="#475569" stroke-width="7"/><path d="M855 325v-75a25 25 0 0150 0v75" fill="#fb923c" stroke="#c2410c" stroke-width="7"/><circle cx="880" cy="250" r="70" fill="#fb923c" opacity=".2"/><path d="M905 325v120H545" stroke="#0f172a" stroke-width="12" fill="none"/><text x="600" y="800" text-anchor="middle" font-family="Arial" font-size="34" font-weight="700" fill="#1e3a8a">Your first GPIO-controlled light</text></svg>
