<svg xmlns="http://www.w3.org/2000/svg" width="800" height="600" viewBox="0 0 800 600" role="img" aria-labelledby="title description">
  <title id="title">SunFounder Raspberry Pi Pico Ultimate Starter Kit</title>
  <desc id="description">A stylized Raspberry Pi Pico electronics starter kit.</desc>
  <defs>
    <linearGradient id="background" x1="0" y1="0" x2="1" y2="1">
      <stop offset="0" stop-color="#eff6ff" />
      <stop offset="1" stop-color="#fff7ed" />
    </linearGradient>
  </defs>
  <rect width="800" height="600" rx="36" fill="url(#background)" />
  <rect x="215" y="105" width="370" height="390" rx="32" fill="#0f172a" />
  <rect x="255" y="145" width="290" height="310" rx="22" fill="#1d4ed8" />
  <g fill="#dbeafe">
    <circle cx="310" cy="205" r="24" />
    <circle cx="400" cy="205" r="24" />
    <circle cx="490" cy="205" r="24" />
    <rect x="285" y="270" width="230" height="38" rx="12" />
    <rect x="285" y="330" width="100" height="82" rx="12" />
    <rect x="415" y="330" width="100" height="82" rx="12" />
  </g>
  <g fill="#f97316">
    <circle cx="195" cy="155" r="18" />
    <circle cx="605" cy="445" r="18" />
    <path d="M120 420h120v16H120zM560 170h120v16H560z" />
  </g>
  <text x="400" y="555" text-anchor="middle" fill="#334155" font-family="Arial, sans-serif" font-size="24" font-weight="700">PICO STARTER KIT</text>
</svg>
