<svg xmlns="http://www.w3.org/2000/svg" width="1200" height="800" viewBox="0 0 1200 800" role="img" aria-labelledby="t d"><title id="t">Finished Pico push button input project</title><desc id="d">Illustrative preview of a Pico, breadboard, pressed button, resistor, jumper wires, and illuminated LED.</desc><rect width="1200" height="800" rx="40" fill="#f8fafc"/><rect x="80" y="90" width="1040" height="620" rx="42" fill="#fff" stroke="#cbd5e1" stroke-width="7"/><rect x="135" y="150" width="930" height="500" rx="30" fill="#eff6ff"/><rect x="240" y="175" width="260" height="450" rx="28" fill="#1d4ed8"/><text x="370" y="420" text-anchor="middle" font-family="Arial,sans-serif" font-size="36" font-weight="700" fill="#fff">PICO</text><path d="M500 310h170" stroke="#2563eb" stroke-width="13"/><rect x="670" y="275" width="160" height="95" rx="20" fill="#334155"/><rect x="705" y="235" width="90" height="70" rx="17" fill="#fb923c"/><path d="M830 320h100v210H500" stroke="#0f172a" stroke-width="13" fill="none"/><path d="M500 470h160" stroke="#ea580c" stroke-width="13"/><rect x="660" y="450" width="145" height="40" rx="18" fill="#e2e8f0"/><path d="M805 470h100v-38" stroke="#ea580c" stroke-width="13" fill="none"/><circle cx="930" cy="345" r="105" fill="#fb923c" opacity=".2"/><path d="M905 432v-82a25 25 0 0150 0v82" fill="#fb923c" stroke="#9a3412" stroke-width="7"/><path d="M955 432v98" stroke="#0f172a" stroke-width="13"/><rect x="385" y="685" width="430" height="58" rx="22" fill="#ffedd5"/><text x="600" y="723" text-anchor="middle" font-family="Arial,sans-serif" font-size="25" font-weight="700" fill="#9a3412">Button pressed • LED on</text></svg>
